<?xml version="1.0" standalone="no"?>
<!DOCTYPE svg PUBLIC "-//W3C//DTD SVG 20010904//EN"
 "http://www.w3.org/TR/2001/REC-SVG-20010904/DTD/svg10.dtd">
<svg version="1.0" xmlns="http://www.w3.org/2000/svg"
 width="1280.000000pt" height="720.000000pt" viewBox="0 0 1280.000000 720.000000"
 preserveAspectRatio="xMidYMid meet">

<g transform="translate(0.000000,720.000000) scale(0.100000,-0.100000)"
fill="#000000" stroke="none">
<path d="M7323 5926 l-28 -24 0 -137 0 -137 28 -24 c18 -15 41 -24 62 -24 21
0 44 9 62 24 l28 24 0 137 0 137 -28 24 c-18 15 -41 24 -62 24 -21 0 -44 -9
-62 -24z"/>
<path d="M6665 5735 c-19 -18 -25 -35 -25 -66 0 -39 6 -47 93 -134 54 -55 104
-97 120 -101 63 -15 128 49 113 112 -4 18 -44 66 -101 122 -87 86 -95 92 -134
92 -31 0 -48 -6 -66 -25z"/>
<path d="M7905 5668 c-55 -55 -97 -105 -101 -121 -15 -63 49 -128 112 -113 18
4 66 44 122 101 86 87 92 95 92 134 0 31 -6 48 -25 66 -18 19 -35 25 -66 25
-39 0 -47 -6 -134 -92z"/>
<path d="M7238 5457 c-189 -66 -305 -220 -316 -419 -3 -69 0 -100 17 -156 92
-303 445 -428 711 -250 209 139 262 432 118 648 -48 72 -131 138 -216 171 -88
34 -226 37 -314 6z m256 -182 c53 -22 120 -88 147 -143 17 -35 23 -65 23 -117
0 -86 -27 -146 -89 -204 -61 -56 -107 -74 -190 -74 -83 0 -129 18 -190 74 -62
58 -89 118 -89 204 0 87 27 146 90 205 84 77 195 98 298 55z"/>
<path d="M6504 5100 c-56 -23 -71 -99 -30 -147 l24 -28 137 0 137 0 24 28 c32
37 32 87 0 124 -24 28 -26 28 -148 30 -67 2 -133 -2 -144 -7z"/>
<path d="M8004 5100 c-56 -23 -71 -99 -30 -147 l24 -28 137 0 137 0 24 28 c32
37 32 87 0 124 -24 28 -26 28 -148 30 -67 2 -133 -2 -144 -7z"/>
<path d="M6825 4581 c-16 -10 -65 -54 -107 -99 -72 -73 -78 -83 -78 -121 0
-58 33 -91 91 -91 38 0 48 6 126 83 122 119 139 162 84 218 -35 34 -72 38
-116 10z"/>
<path d="M7849 4585 c-33 -18 -53 -66 -45 -102 4 -16 46 -66 101 -120 87 -87
95 -93 134 -93 57 0 91 33 91 90 0 37 -7 48 -82 126 -110 114 -142 130 -199
99z"/>
<path d="M7323 4426 l-28 -24 0 -137 0 -137 28 -24 c18 -15 41 -24 62 -24 21
0 44 9 62 24 l28 24 0 137 0 137 -28 24 c-18 15 -41 24 -62 24 -21 0 -44 -9
-62 -24z"/>
<path d="M6210 3875 c-437 -90 -796 -164 -797 -165 -2 0 -3 -317 -3 -705 l0
-705 -97 0 c-54 0 -123 -7 -153 -15 -249 -66 -406 -287 -330 -463 81 -188 365
-249 607 -131 89 43 166 117 205 197 l33 67 3 677 c2 377 7 678 12 678 8 0
1011 204 1058 215 l22 5 0 -477 0 -478 -83 3 c-264 11 -509 -173 -509 -382 0
-273 395 -386 681 -195 71 47 111 91 149 162 l27 52 3 913 c2 867 2 912 -15
911 -10 0 -376 -74 -813 -164z"/>
</g>
</svg>
